<mxfile host="app.diagrams.net" agent="Mozilla/5.0 (Macintosh; Intel Mac OS X 10_15_7) AppleWebKit/537.36 (KHTML, like Gecko) Chrome/137.0.0.0 Safari/537.36" version="27.2.0">
  <diagram name="第 1 页" id="a-qAF57k8_4oPYb_Egr2">
    <mxGraphModel dx="407" dy="772" grid="1" gridSize="10" guides="1" tooltips="1" connect="1" arrows="1" fold="1" page="1" pageScale="1" pageWidth="827" pageHeight="1169" math="1" shadow="0" adaptiveColors="auto">
      <root>
        <mxCell id="0" />
        <mxCell id="1" parent="0" />
        <mxCell id="-_Peau9tZIeJQPuD8JJ9-6" value="" style="group" vertex="1" connectable="0" parent="1">
          <mxGeometry x="1020" y="50" width="580" height="40" as="geometry" />
        </mxCell>
        <mxCell id="-_Peau9tZIeJQPuD8JJ9-1" value="" style="rounded=0;whiteSpace=wrap;html=1;strokeWidth=2;" vertex="1" parent="-_Peau9tZIeJQPuD8JJ9-6">
          <mxGeometry width="580" height="40" as="geometry" />
        </mxCell>
        <mxCell id="-_Peau9tZIeJQPuD8JJ9-2" value="" style="line;strokeWidth=2;direction=south;html=1;" vertex="1" parent="-_Peau9tZIeJQPuD8JJ9-6">
          <mxGeometry x="71.2280701754386" width="10.17543859649123" height="40" as="geometry" />
        </mxCell>
        <mxCell id="-_Peau9tZIeJQPuD8JJ9-3" value="" style="line;strokeWidth=2;direction=south;html=1;" vertex="1" parent="-_Peau9tZIeJQPuD8JJ9-6">
          <mxGeometry x="142.4561403508772" width="10.17543859649123" height="40" as="geometry" />
        </mxCell>
        <mxCell id="-_Peau9tZIeJQPuD8JJ9-4" value="" style="line;strokeWidth=2;direction=south;html=1;" vertex="1" parent="-_Peau9tZIeJQPuD8JJ9-6">
          <mxGeometry x="508.7719298245614" width="10.17543859649123" height="40" as="geometry" />
        </mxCell>
        <mxCell id="-_Peau9tZIeJQPuD8JJ9-5" value="" style="line;strokeWidth=2;direction=south;html=1;" vertex="1" parent="-_Peau9tZIeJQPuD8JJ9-6">
          <mxGeometry x="437.54385964912285" width="10.17543859649123" height="40" as="geometry" />
        </mxCell>
        <mxCell id="-_Peau9tZIeJQPuD8JJ9-7" value="&lt;font style=&quot;font-size: 14px;&quot;&gt;&lt;b&gt;00000&lt;/b&gt;&lt;/font&gt;" style="text;html=1;align=center;verticalAlign=middle;whiteSpace=wrap;rounded=0;" vertex="1" parent="-_Peau9tZIeJQPuD8JJ9-6">
          <mxGeometry x="6.105263157894737" y="5" width="61.05263157894737" height="30" as="geometry" />
        </mxCell>
        <mxCell id="-_Peau9tZIeJQPuD8JJ9-15" value="&lt;font style=&quot;font-size: 14px;&quot;&gt;&lt;b&gt;00001&lt;/b&gt;&lt;/font&gt;" style="text;html=1;align=center;verticalAlign=middle;whiteSpace=wrap;rounded=0;" vertex="1" parent="-_Peau9tZIeJQPuD8JJ9-6">
          <mxGeometry x="81.40350877192984" y="5" width="61.05263157894737" height="30" as="geometry" />
        </mxCell>
        <mxCell id="-_Peau9tZIeJQPuD8JJ9-16" value="&lt;font style=&quot;font-size: 14px;&quot;&gt;&lt;b&gt;49998&lt;/b&gt;&lt;/font&gt;" style="text;html=1;align=center;verticalAlign=middle;whiteSpace=wrap;rounded=0;" vertex="1" parent="-_Peau9tZIeJQPuD8JJ9-6">
          <mxGeometry x="447.7192982456141" y="5" width="61.05263157894737" height="30" as="geometry" />
        </mxCell>
        <mxCell id="-_Peau9tZIeJQPuD8JJ9-17" value="&lt;font style=&quot;font-size: 14px;&quot;&gt;&lt;b&gt;49999&lt;/b&gt;&lt;/font&gt;" style="text;html=1;align=center;verticalAlign=middle;whiteSpace=wrap;rounded=0;" vertex="1" parent="-_Peau9tZIeJQPuD8JJ9-6">
          <mxGeometry x="518.9473684210527" y="5" width="61.05263157894737" height="30" as="geometry" />
        </mxCell>
        <mxCell id="-_Peau9tZIeJQPuD8JJ9-18" value="&lt;b style=&quot;font-size: 18px;&quot;&gt;......&lt;/b&gt;" style="text;html=1;align=center;verticalAlign=middle;whiteSpace=wrap;rounded=0;" vertex="1" parent="-_Peau9tZIeJQPuD8JJ9-6">
          <mxGeometry x="270" width="60" height="30" as="geometry" />
        </mxCell>
        <mxCell id="-_Peau9tZIeJQPuD8JJ9-19" value="&lt;b&gt;List&lt;/b&gt;&lt;div&gt;&lt;b&gt;Num:50000&lt;/b&gt;&lt;/div&gt;" style="text;html=1;align=left;verticalAlign=middle;whiteSpace=wrap;rounded=0;strokeWidth=3;" vertex="1" parent="1">
          <mxGeometry x="930" y="55" width="60" height="30" as="geometry" />
        </mxCell>
        <mxCell id="-_Peau9tZIeJQPuD8JJ9-34" value="&lt;b&gt;Tuple&lt;/b&gt;&lt;br&gt;&lt;div&gt;&lt;b&gt;Num:2&lt;/b&gt;&lt;/div&gt;" style="text;html=1;align=left;verticalAlign=middle;whiteSpace=wrap;rounded=0;strokeWidth=3;" vertex="1" parent="1">
          <mxGeometry x="930" y="205" width="60" height="30" as="geometry" />
        </mxCell>
        <mxCell id="-_Peau9tZIeJQPuD8JJ9-35" value="" style="endArrow=none;html=1;rounded=0;entryX=0.188;entryY=0.988;entryDx=0;entryDy=0;entryPerimeter=0;exitX=0;exitY=0.5;exitDx=0;exitDy=0;exitPerimeter=0;edgeStyle=orthogonalEdgeStyle;curved=1;strokeWidth=2;endFill=0;startArrow=classic;startFill=1;" edge="1" parent="1" source="-_Peau9tZIeJQPuD8JJ9-23" target="-_Peau9tZIeJQPuD8JJ9-1">
          <mxGeometry width="50" height="50" relative="1" as="geometry">
            <mxPoint x="1080" y="170" as="sourcePoint" />
            <mxPoint x="1130" y="120" as="targetPoint" />
          </mxGeometry>
        </mxCell>
        <mxCell id="-_Peau9tZIeJQPuD8JJ9-36" value="" style="rounded=0;whiteSpace=wrap;html=1;strokeWidth=2;" vertex="1" parent="1">
          <mxGeometry x="1070" y="270" width="50" height="350" as="geometry" />
        </mxCell>
        <mxCell id="-_Peau9tZIeJQPuD8JJ9-38" value="" style="rounded=0;whiteSpace=wrap;html=1;strokeWidth=2;" vertex="1" parent="1">
          <mxGeometry x="1170" y="270" width="50" height="210" as="geometry" />
        </mxCell>
        <mxCell id="-_Peau9tZIeJQPuD8JJ9-39" value="" style="endArrow=none;html=1;rounded=0;strokeWidth=2;" edge="1" parent="1">
          <mxGeometry width="50" height="50" relative="1" as="geometry">
            <mxPoint x="1120.7" y="330" as="sourcePoint" />
            <mxPoint x="1069.3" y="330" as="targetPoint" />
            <Array as="points">
              <mxPoint x="1090.7" y="330" />
              <mxPoint x="1069.3" y="330" />
            </Array>
          </mxGeometry>
        </mxCell>
        <mxCell id="-_Peau9tZIeJQPuD8JJ9-40" value="" style="endArrow=none;html=1;rounded=0;strokeWidth=2;" edge="1" parent="1">
          <mxGeometry width="50" height="50" relative="1" as="geometry">
            <mxPoint x="1120.7" y="390" as="sourcePoint" />
            <mxPoint x="1069.3" y="390" as="targetPoint" />
            <Array as="points">
              <mxPoint x="1069.3" y="390" />
            </Array>
          </mxGeometry>
        </mxCell>
        <mxCell id="-_Peau9tZIeJQPuD8JJ9-41" value="" style="endArrow=none;html=1;rounded=0;strokeWidth=2;" edge="1" parent="1">
          <mxGeometry width="50" height="50" relative="1" as="geometry">
            <mxPoint x="1121.4" y="570" as="sourcePoint" />
            <mxPoint x="1070" y="570" as="targetPoint" />
            <Array as="points">
              <mxPoint x="1070" y="570" />
            </Array>
          </mxGeometry>
        </mxCell>
        <mxCell id="-_Peau9tZIeJQPuD8JJ9-43" value="" style="endArrow=none;html=1;rounded=0;strokeWidth=2;" edge="1" parent="1">
          <mxGeometry width="50" height="50" relative="1" as="geometry">
            <mxPoint x="1220.7" y="330" as="sourcePoint" />
            <mxPoint x="1169.3" y="330" as="targetPoint" />
            <Array as="points">
              <mxPoint x="1169.3" y="330" />
            </Array>
          </mxGeometry>
        </mxCell>
        <mxCell id="-_Peau9tZIeJQPuD8JJ9-44" value="" style="endArrow=none;html=1;rounded=0;strokeWidth=2;" edge="1" parent="1">
          <mxGeometry width="50" height="50" relative="1" as="geometry">
            <mxPoint x="1221.4" y="380" as="sourcePoint" />
            <mxPoint x="1170" y="380" as="targetPoint" />
            <Array as="points">
              <mxPoint x="1170" y="380" />
            </Array>
          </mxGeometry>
        </mxCell>
        <mxCell id="-_Peau9tZIeJQPuD8JJ9-46" value="" style="endArrow=none;html=1;rounded=0;strokeWidth=2;" edge="1" parent="1">
          <mxGeometry width="50" height="50" relative="1" as="geometry">
            <mxPoint x="1220" y="430" as="sourcePoint" />
            <mxPoint x="1168.6" y="430" as="targetPoint" />
            <Array as="points">
              <mxPoint x="1168.6" y="430" />
            </Array>
          </mxGeometry>
        </mxCell>
        <mxCell id="-_Peau9tZIeJQPuD8JJ9-58" value="&lt;font style=&quot;font-size: 14px;&quot;&gt;&lt;b&gt;784&lt;/b&gt;&lt;/font&gt;" style="text;html=1;align=center;verticalAlign=middle;whiteSpace=wrap;rounded=0;" vertex="1" parent="1">
          <mxGeometry x="1075" y="580" width="40" height="30" as="geometry" />
        </mxCell>
        <mxCell id="-_Peau9tZIeJQPuD8JJ9-59" value="&lt;font style=&quot;font-size: 14px;&quot;&gt;&lt;b&gt;1&lt;/b&gt;&lt;/font&gt;" style="text;html=1;align=center;verticalAlign=middle;whiteSpace=wrap;rounded=0;" vertex="1" parent="1">
          <mxGeometry x="1076" y="350" width="40" height="30" as="geometry" />
        </mxCell>
        <mxCell id="-_Peau9tZIeJQPuD8JJ9-60" value="&lt;font style=&quot;font-size: 14px;&quot;&gt;&lt;b&gt;0&lt;/b&gt;&lt;/font&gt;" style="text;html=1;align=center;verticalAlign=middle;whiteSpace=wrap;rounded=0;" vertex="1" parent="1">
          <mxGeometry x="1075" y="290" width="40" height="30" as="geometry" />
        </mxCell>
        <mxCell id="-_Peau9tZIeJQPuD8JJ9-62" value="&lt;font style=&quot;font-size: 14px;&quot;&gt;&lt;b&gt;0&lt;/b&gt;&lt;/font&gt;" style="text;html=1;align=center;verticalAlign=middle;whiteSpace=wrap;rounded=0;" vertex="1" parent="1">
          <mxGeometry x="1175" y="290" width="40" height="30" as="geometry" />
        </mxCell>
        <mxCell id="-_Peau9tZIeJQPuD8JJ9-63" value="&lt;font style=&quot;font-size: 14px;&quot;&gt;&lt;b&gt;1&lt;/b&gt;&lt;/font&gt;" style="text;html=1;align=center;verticalAlign=middle;whiteSpace=wrap;rounded=0;" vertex="1" parent="1">
          <mxGeometry x="1175" y="340" width="40" height="30" as="geometry" />
        </mxCell>
        <mxCell id="-_Peau9tZIeJQPuD8JJ9-64" value="&lt;font style=&quot;font-size: 14px;&quot;&gt;&lt;b&gt;10&lt;/b&gt;&lt;/font&gt;" style="text;html=1;align=center;verticalAlign=middle;whiteSpace=wrap;rounded=0;" vertex="1" parent="1">
          <mxGeometry x="1175" y="440" width="40" height="30" as="geometry" />
        </mxCell>
        <mxCell id="-_Peau9tZIeJQPuD8JJ9-66" value="" style="endArrow=none;html=1;rounded=0;entryX=0.294;entryY=1.05;entryDx=0;entryDy=0;entryPerimeter=0;exitX=0.5;exitY=0;exitDx=0;exitDy=0;edgeStyle=orthogonalEdgeStyle;curved=1;strokeWidth=2;endFill=0;startArrow=classic;startFill=1;" edge="1" parent="1" source="-_Peau9tZIeJQPuD8JJ9-36" target="-_Peau9tZIeJQPuD8JJ9-22">
          <mxGeometry width="50" height="50" relative="1" as="geometry">
            <mxPoint x="931" y="560" as="sourcePoint" />
            <mxPoint x="920" y="450" as="targetPoint" />
          </mxGeometry>
        </mxCell>
        <mxCell id="-_Peau9tZIeJQPuD8JJ9-70" value="" style="endArrow=none;html=1;rounded=0;entryX=0.75;entryY=1;entryDx=0;entryDy=0;exitX=0.5;exitY=0;exitDx=0;exitDy=0;edgeStyle=orthogonalEdgeStyle;curved=1;strokeWidth=2;endFill=0;startArrow=classic;startFill=1;" edge="1" parent="1" source="-_Peau9tZIeJQPuD8JJ9-38" target="-_Peau9tZIeJQPuD8JJ9-22">
          <mxGeometry width="50" height="50" relative="1" as="geometry">
            <mxPoint x="1241" y="293" as="sourcePoint" />
            <mxPoint x="1301" y="205" as="targetPoint" />
          </mxGeometry>
        </mxCell>
        <mxCell id="-_Peau9tZIeJQPuD8JJ9-71" value="&lt;font style=&quot;font-size: 15px;&quot;&gt;&lt;b&gt;...&lt;/b&gt;&lt;/font&gt;" style="text;html=1;align=center;verticalAlign=middle;whiteSpace=wrap;rounded=0;" vertex="1" parent="1">
          <mxGeometry x="1075" y="480" width="40" height="30" as="geometry" />
        </mxCell>
        <mxCell id="-_Peau9tZIeJQPuD8JJ9-72" value="&lt;font style=&quot;font-size: 15px;&quot;&gt;&lt;b&gt;...&lt;/b&gt;&lt;/font&gt;" style="text;html=1;align=center;verticalAlign=middle;whiteSpace=wrap;rounded=0;" vertex="1" parent="1">
          <mxGeometry x="1175" y="390" width="40" height="30" as="geometry" />
        </mxCell>
        <mxCell id="-_Peau9tZIeJQPuD8JJ9-73" value="&lt;b&gt;numpy&lt;/b&gt;&lt;br&gt;&lt;div&gt;&lt;b&gt;Num:784&lt;/b&gt;&lt;/div&gt;" style="text;html=1;align=left;verticalAlign=middle;whiteSpace=wrap;rounded=0;strokeWidth=3;" vertex="1" parent="1">
          <mxGeometry x="930" y="390" width="60" height="30" as="geometry" />
        </mxCell>
        <mxCell id="-_Peau9tZIeJQPuD8JJ9-74" value="&lt;b&gt;numpy&lt;/b&gt;&lt;br&gt;&lt;div&gt;&lt;b&gt;Num:10&lt;/b&gt;&lt;/div&gt;" style="text;html=1;align=left;verticalAlign=middle;whiteSpace=wrap;rounded=0;strokeWidth=3;" vertex="1" parent="1">
          <mxGeometry x="1270" y="350" width="60" height="30" as="geometry" />
        </mxCell>
        <mxCell id="-_Peau9tZIeJQPuD8JJ9-75" value="" style="group" vertex="1" connectable="0" parent="1">
          <mxGeometry x="1060" y="160" width="160" height="40" as="geometry" />
        </mxCell>
        <mxCell id="-_Peau9tZIeJQPuD8JJ9-22" value="" style="rounded=0;whiteSpace=wrap;html=1;strokeWidth=2;" vertex="1" parent="-_Peau9tZIeJQPuD8JJ9-75">
          <mxGeometry width="160" height="40" as="geometry" />
        </mxCell>
        <mxCell id="-_Peau9tZIeJQPuD8JJ9-23" value="" style="line;strokeWidth=2;direction=south;html=1;" vertex="1" parent="-_Peau9tZIeJQPuD8JJ9-75">
          <mxGeometry x="78.5991228070177" width="2.8070175438596494" height="40" as="geometry" />
        </mxCell>
        <mxCell id="-_Peau9tZIeJQPuD8JJ9-32" value="&lt;font style=&quot;font-size: 14px;&quot;&gt;&lt;b&gt;0&lt;/b&gt;&lt;/font&gt;" style="text;html=1;align=center;verticalAlign=middle;whiteSpace=wrap;rounded=0;" vertex="1" parent="-_Peau9tZIeJQPuD8JJ9-75">
          <mxGeometry x="10" y="5" width="70" height="30" as="geometry" />
        </mxCell>
        <mxCell id="-_Peau9tZIeJQPuD8JJ9-33" value="&lt;span style=&quot;font-size: 14px;&quot;&gt;&lt;b&gt;1&lt;/b&gt;&lt;/span&gt;" style="text;html=1;align=center;verticalAlign=middle;whiteSpace=wrap;rounded=0;" vertex="1" parent="-_Peau9tZIeJQPuD8JJ9-75">
          <mxGeometry x="90" y="5" width="61.05263157894737" height="30" as="geometry" />
        </mxCell>
      </root>
    </mxGraphModel>
  </diagram>
</mxfile>
